# xmcd CD database file
#
# Track frame offsets:
#	150
#	16687
#	35620
#	48421
#	64109
#	79667
#	99121
#	115584
#	133078
#	148024
#	169127
#	185483
#
# Disc length: 2783 seconds
#
# Revision: 0
# Processed by: cddbd v1.5.2PL0 Copyright (c) Steve Scherf et al.
# Submitted via: CDex 1.40Release
#
DISCID=970add0c
DTITLE=Billy T Band - L.O.V.E. (Just a Silly Notion)
DYEAR=2010
DGENRE=Blues
TTITLE0=L.O.V.E.
TTITLE1=Trying To Live My Life Without You Baby
TTITLE2=You Don't Answer My Letters
TTITLE3=Me and You
TTITLE4=I'm Coming Home
TTITLE5=I Was Born a Loser
TTITLE6=It Hurts To Be In Love
TTITLE7=That's What The Whiskey's For
TTITLE8=Selma
TTITLE9=Try a Little Harder
TTITLE10=Um, Um, Um, Um, Um, Um
TTITLE11=Any Other Day
EXTD=YEAR: 2010 ID3G: 0
EXTT0=
EXTT1=
EXTT2=
EXTT3=
EXTT4=
EXTT5=
EXTT6=
EXTT7=
EXTT8=
EXTT9=
EXTT10=
EXTT11=
PLAYORDER=
